<svg version="1.1" id="Layer_1" xmlns="http://www.w3.org/2000/svg" xmlns:xlink="http://www.w3.org/1999/xlink" x="0px" y="0px"
	 width="100%" viewBox="0 0 906 905" enable-background="new 0 0 906 905" xml:space="preserve">
<path fill="#FFFFFF" opacity="1.000000" stroke="none" 
	d="
M5.000000,1.000000 
	C8.030607,1.000000 11.061214,1.000000 14.635323,1.396801 
	C16.348179,2.193529 17.517031,2.941424 18.686966,2.943121 
	C61.836449,3.005728 104.986069,3.016553 148.135406,2.918066 
	C149.425064,2.915122 150.711868,1.667374 152.000000,1.000001 
	C153.066605,1.000000 154.133194,1.000000 155.686676,1.397499 
	C157.344269,2.193792 158.514496,2.939662 159.685776,2.941300 
	C204.504288,3.003962 249.322937,3.015079 294.141327,2.917924 
	C295.428925,2.915133 296.713837,1.667300 298.000000,0.999998 
	C300.041687,1.000000 302.083344,1.000000 304.649292,1.397525 
	C306.344147,2.194118 307.514313,2.940458 308.685486,2.942119 
	C352.836395,3.004759 396.987427,3.015788 441.138184,2.918123 
	C442.426849,2.915272 443.712799,1.667380 445.000000,1.000000 
	C447.041687,1.000000 449.083344,1.000000 451.649109,1.397594 
	C453.343842,2.194259 454.514008,2.940593 455.685181,2.942270 
	C499.504303,3.005009 543.323547,3.016100 587.142456,2.918331 
	C588.429688,2.915458 589.714233,1.667459 591.000000,1.000002 
	C592.388916,1.000000 593.777771,1.000000 595.669922,1.397610 
	C597.343750,2.194344 598.513794,2.940843 599.684937,2.942472 
	C644.503662,3.004819 689.322449,3.015566 734.140991,2.918025 
	C735.428711,2.915223 736.713745,1.667325 738.000000,0.999991 
	C739.066589,1.000000 740.133240,1.000000 741.686646,1.397577 
	C743.343994,2.194456 744.513977,2.941313 745.685059,2.942907 
	C790.835083,3.004371 835.985291,3.014230 881.135132,2.916080 
	C882.424805,2.913276 883.711792,1.666653 885.000000,0.999998 
	C891.692505,1.000000 898.385010,1.000000 905.644531,1.221276 
	C906.408142,1.722018 906.670959,1.907834 907.000000,2.000000 
	C907.000000,303.286346 907.000000,604.572693 907.000000,905.929565 
	C605.094055,905.929565 303.188080,905.929565 1.000000,905.929565 
	C1.000000,605.307556 1.000000,304.615021 1.376001,3.458725 
	C2.834668,2.329961 3.917334,1.664981 5.000000,1.000000 
M179.503281,476.119324 
	C193.657349,476.101044 207.820908,475.777588 221.960785,476.216583 
	C227.519226,476.389099 229.571991,474.125824 230.834427,469.291779 
	C233.312073,459.804535 236.169662,450.415985 238.903458,440.996307 
	C241.068008,433.538116 240.208115,432.441071 232.516479,432.451111 
	C209.704254,432.480865 186.891754,432.399536 164.079880,432.489746 
	C160.984818,432.501953 159.251617,431.982239 158.736954,428.417084 
	C157.980499,423.177124 156.449326,418.053528 155.407730,412.848450 
	C154.823059,409.926697 153.473068,408.684143 150.307190,408.811249 
	C143.989212,409.064850 137.654648,408.914459 131.326935,408.912598 
	C128.786285,408.911835 125.862206,408.636078 125.903343,412.296295 
	C125.945053,416.006378 128.760834,416.095734 131.630875,416.044922 
	C137.264191,415.945160 142.900528,416.015594 148.862228,416.015594 
	C152.362808,432.178345 155.863464,448.047668 159.222733,463.946838 
	C161.798645,476.138519 161.719299,476.155334 174.010025,476.130005 
	C175.508713,476.126892 177.007401,476.123138 179.503281,476.119324 
M437.737854,443.973145 
	C433.787018,455.273834 429.836182,466.574554 425.885345,477.875244 
	C424.126526,476.088348 423.523499,474.407745 422.923065,472.726227 
	C419.679413,463.642090 416.519135,454.526459 413.106384,445.506317 
	C412.579285,444.113129 410.997284,442.312378 409.727203,442.159180 
	C406.009888,441.710907 402.203705,441.999725 397.980133,441.999725 
	C398.574799,443.869354 398.909424,445.128662 399.370575,446.339844 
	C405.288239,461.883545 411.222992,477.420746 417.155579,492.958801 
	C419.472870,499.027954 416.290771,504.533844 409.859985,505.162720 
	C406.640411,505.477509 403.364624,505.217529 399.679291,505.217529 
	C399.480560,506.211731 399.194946,507.652405 398.904449,509.092072 
	C397.492188,516.090454 397.976105,516.695679 405.223633,516.988953 
	C418.337738,517.519592 425.111176,513.396851 429.873383,501.200165 
	C436.708344,483.695007 443.228821,466.066956 449.863281,448.483734 
	C450.604126,446.520264 451.213226,444.507080 452.265442,441.382629 
	C446.945587,442.066895 442.500885,442.638611 437.737854,443.973145 
M721.809814,486.930176 
	C722.326111,488.333740 722.726196,489.794250 723.380737,491.130066 
	C725.243530,494.931946 726.169800,498.638550 722.888000,502.187836 
	C719.603394,505.740143 715.532837,506.333832 711.023499,505.391510 
	C709.646729,505.103821 708.239624,504.961884 706.550293,504.708801 
	C705.883972,508.513306 705.297974,511.859711 704.727661,515.116089 
	C719.917969,520.051453 729.880310,515.687073 736.065430,501.810059 
	C736.674500,500.443604 737.277649,499.071228 737.803711,497.671570 
	C744.294922,480.400879 750.776489,463.126526 757.239746,445.845337 
	C757.667236,444.702362 757.925354,443.496033 758.314392,442.137207 
	C753.745544,442.137207 749.611816,442.137207 745.301758,442.137207 
	C741.049866,454.311951 736.824341,466.411194 732.144714,479.810883 
	C730.998779,476.931244 730.362915,475.466705 729.827576,473.966278 
	C726.420105,464.415161 723.114807,454.826111 719.551819,445.333618 
	C719.045349,443.984222 717.420105,442.294006 716.145020,442.138855 
	C712.563293,441.703094 708.893982,441.986847 704.635193,441.986847 
	C710.391235,457.078369 715.947083,471.645081 721.809814,486.930176 
M699.015320,448.532471 
	C691.802795,440.457733 682.658020,439.671692 672.957642,442.055359 
	C663.872925,444.287720 658.068909,450.508057 656.410095,459.475647 
	C655.319641,465.370941 655.338928,471.783936 656.388062,477.694061 
	C658.264832,488.266510 666.709167,494.853546 677.929382,495.937714 
	C690.057434,497.109558 698.433594,493.001556 702.960266,483.446594 
	C699.978210,481.573242 696.970276,479.683716 693.992798,477.813263 
	C688.150757,486.199341 680.943237,485.548370 675.709839,483.652435 
	C671.149963,482.000549 668.840637,477.480865 669.507385,472.007721 
	C674.962158,472.007721 680.443542,472.007721 685.924866,472.007721 
	C691.557312,472.007721 697.189758,472.007721 702.705566,472.007721 
	C704.783997,463.978882 703.603638,456.154022 699.015320,448.532471 
M559.037659,443.357819 
	C541.557373,451.007935 541.817627,479.135559 552.574524,489.063995 
	C554.616760,490.948914 557.013672,492.650818 559.541565,493.774109 
	C571.723022,499.187164 586.380920,495.164795 592.755859,484.878174 
	C599.882385,473.378662 597.697021,454.572632 588.031616,446.703186 
	C585.525574,444.662811 582.386536,443.127808 579.289551,442.141632 
	C572.754211,440.060516 566.162781,440.596069 559.037659,443.357819 
M346.399353,456.506592 
	C346.399353,469.239990 346.399353,481.973389 346.399353,494.718201 
	C351.337189,494.718201 355.432281,494.718201 360.072845,494.718201 
	C360.072845,486.499634 359.801575,478.545227 360.179749,470.621826 
	C360.389648,466.224060 361.068726,461.638062 362.654297,457.572998 
	C364.403259,453.089050 369.855255,451.581635 375.053894,452.856781 
	C379.922729,454.050995 380.371887,457.745483 380.391235,461.749634 
	C380.414581,466.575928 380.398865,471.402405 380.399231,476.228821 
	C380.399719,482.344177 380.399353,488.459564 380.399353,494.631470 
	C385.269775,494.631470 389.487885,494.631470 393.890961,494.631470 
	C393.890961,481.304810 394.332184,468.328979 393.741577,455.400299 
	C393.321960,446.214355 386.980011,441.346191 377.794403,440.927765 
	C370.380188,440.590088 364.679199,443.357178 360.102631,449.918732 
	C359.861877,446.815613 359.688782,444.584686 359.512604,442.313690 
	C355.028839,442.313690 350.963654,442.313690 346.400055,442.313690 
	C346.400055,446.919312 346.400055,451.215179 346.399353,456.506592 
M478.507019,495.010010 
	C480.596375,495.010010 482.685730,495.010010 485.152008,495.010010 
	C485.152008,475.056000 485.152008,455.808105 485.152008,436.117676 
	C491.953278,436.117676 498.378448,436.117676 504.955658,436.117676 
	C504.955658,432.214294 504.955658,428.759766 504.955658,425.269531 
	C487.011658,425.269531 469.266083,425.269531 451.424622,425.269531 
	C451.424622,428.948608 451.424622,432.337708 451.424622,436.218781 
	C458.146240,436.218781 464.562592,436.218781 471.335022,436.218781 
	C471.335022,455.976624 471.335022,475.238434 471.335022,495.010010 
	C473.656708,495.010010 475.604858,495.010010 478.507019,495.010010 
M291.407227,495.004456 
	C293.153870,494.921478 294.900513,494.838501 297.124268,494.732880 
	C297.124268,474.939941 297.124268,455.727814 297.124268,435.864014 
	C303.996338,435.864014 310.374908,435.864014 316.656677,435.864014 
	C316.656677,431.939606 316.656677,428.688965 316.656677,425.383667 
	C298.482544,425.383667 280.643402,425.383667 262.706787,425.383667 
	C262.706787,429.036072 262.706787,432.292328 262.706787,436.222870 
	C269.535645,436.222870 276.072296,436.222870 283.087860,436.222870 
	C283.087860,456.113617 283.087860,475.331635 283.087860,495.004486 
	C285.877380,495.004486 288.169922,495.004486 291.407227,495.004456 
M636.548096,420.984344 
	C634.803772,420.984344 633.059448,420.984344 631.203735,420.984344 
	C631.203735,441.755219 631.192932,461.737000 631.228333,481.718658 
	C631.230652,483.033844 631.493774,484.369537 631.791016,485.659882 
	C633.918152,494.893494 644.142090,499.068817 652.620850,494.084045 
	C652.238281,491.036621 651.849854,487.942200 651.470032,484.916504 
	C645.182617,484.579926 644.381592,483.787140 644.298950,477.780762 
	C644.234741,473.115936 644.290833,468.449463 644.291077,463.783722 
	C644.291748,449.641357 644.291382,435.498993 644.291382,420.984314 
	C641.759155,420.984314 639.620056,420.984314 636.548096,420.984344 
M604.999695,461.500000 
	C605.040771,468.654602 604.747620,475.830444 605.200806,482.958862 
	C605.892700,493.843567 616.284607,499.334198 626.438354,494.218872 
	C626.043030,491.080566 625.635620,487.846466 625.237183,484.683746 
	C619.055664,484.656738 618.151062,483.841095 618.133423,477.999390 
	C618.081604,460.859650 618.116516,443.719635 618.117432,426.579742 
	C618.117554,424.820465 618.117493,423.061157 618.117493,421.313660 
	C613.414124,421.313660 609.351562,421.313660 604.999695,421.313660 
	C604.999695,434.590515 604.999695,447.545258 604.999695,461.500000 
M515.578613,441.989532 
	C514.115906,442.059204 512.653137,442.128845 511.074799,442.203979 
	C511.074799,459.907349 511.074799,477.325684 511.074799,494.744690 
	C515.398254,494.744690 519.495239,494.744690 524.128113,494.744690 
	C524.128113,485.538574 523.828003,476.579468 524.203796,467.648773 
	C524.678589,456.364380 529.846191,452.614716 540.762451,454.930420 
	C541.016663,454.984344 541.344116,454.692993 541.866882,454.460785 
	C542.535034,450.889008 543.226746,447.191223 543.967224,443.232941 
	C535.490112,440.339539 528.933167,442.219635 524.017334,450.700073 
	C523.786621,446.983734 523.636902,444.572327 523.476624,441.989624 
	C520.834351,441.989624 518.677490,441.989624 515.578613,441.989532 
M335.838501,482.485718 
	C335.838501,469.083008 335.838501,455.680328 335.838501,442.409332 
	C330.810516,442.409332 326.591309,442.409332 322.395508,442.409332 
	C322.395508,460.066162 322.395508,477.293488 322.395508,494.678955 
	C326.926575,494.678955 331.141571,494.678955 335.838226,494.678955 
	C335.838226,490.728699 335.838226,487.103149 335.838501,482.485718 
M178.576569,481.805023 
	C173.859573,479.673706 169.201126,479.531982 164.945831,482.763123 
	C159.532623,486.873474 158.756378,495.246307 163.166000,500.024078 
	C168.247131,505.529449 176.509064,505.833252 181.312988,500.691376 
	C186.624268,495.006348 185.766037,487.257629 178.576569,481.805023 
M231.826782,490.850037 
	C231.253403,489.296387 230.887512,487.622711 230.070435,486.209991 
	C226.686310,480.358826 218.645172,478.434296 213.092636,482.029724 
	C207.159927,485.871338 205.620758,494.035767 209.793625,499.529053 
	C212.849564,503.551971 218.176910,505.363159 223.251205,503.769623 
	C229.080551,501.939026 231.639633,497.579498 231.826782,490.850037 
M330.100616,420.350708 
	C323.907135,420.651184 321.171265,422.876282 320.931396,427.808044 
	C320.697174,432.623688 323.324249,436.045715 327.741089,436.678314 
	C331.673431,437.241516 335.843079,434.779846 336.862518,431.293213 
	C338.363892,426.158234 336.429047,422.716125 330.100616,420.350708 
z"/>
<path fill="#EDEEF0" opacity="1.000000" stroke="none" 
	d="
M884.531372,0.999998 
	C883.711792,1.666653 882.424805,2.913276 881.135132,2.916080 
	C835.985291,3.014230 790.835083,3.004371 745.685059,2.942907 
	C744.513977,2.941313 743.343994,2.194456 742.086731,1.397577 
	C789.354248,1.000000 836.708435,1.000000 884.531372,0.999998 
z"/>
<path fill="#EDEEF0" opacity="1.000000" stroke="none" 
	d="
M737.531372,0.999991 
	C736.713745,1.667325 735.428711,2.915223 734.140991,2.918025 
	C689.322449,3.015566 644.503662,3.004819 599.684937,2.942472 
	C598.513794,2.940843 597.343750,2.194344 596.086548,1.397610 
	C643.020874,1.000000 690.041809,1.000000 737.531372,0.999991 
z"/>
<path fill="#EDEEF0" opacity="1.000000" stroke="none" 
	d="
M297.531342,0.999998 
	C296.713837,1.667300 295.428925,2.915133 294.141327,2.917924 
	C249.322937,3.015079 204.504288,3.003962 159.685776,2.941300 
	C158.514496,2.939662 157.344269,2.193792 156.086777,1.397499 
	C203.020889,1.000000 250.041794,1.000000 297.531342,0.999998 
z"/>
<path fill="#EDEEF0" opacity="1.000000" stroke="none" 
	d="
M444.531342,1.000000 
	C443.712799,1.667380 442.426849,2.915272 441.138184,2.918123 
	C396.987427,3.015788 352.836395,3.004759 308.685486,2.942119 
	C307.514313,2.940458 306.344147,2.194118 305.086761,1.397525 
	C351.354218,1.000000 397.708466,1.000000 444.531342,1.000000 
z"/>
<path fill="#EDEEF0" opacity="1.000000" stroke="none" 
	d="
M590.531372,1.000002 
	C589.714233,1.667459 588.429688,2.915458 587.142456,2.918331 
	C543.323547,3.016100 499.504303,3.005009 455.685181,2.942270 
	C454.514008,2.940593 453.343842,2.194259 452.086609,1.397594 
	C498.020905,1.000000 544.041809,1.000000 590.531372,1.000002 
z"/>
<path fill="#EDEEF0" opacity="1.000000" stroke="none" 
	d="
M151.531342,1.000001 
	C150.711868,1.667374 149.425064,2.915122 148.135406,2.918066 
	C104.986069,3.016553 61.836449,3.005728 18.686966,2.943121 
	C17.517031,2.941424 16.348179,2.193529 15.089411,1.396801 
	C60.354229,1.000000 105.708458,1.000000 151.531342,1.000001 
z"/>
<path fill="#EDEEF0" opacity="1.000000" stroke="none" 
	d="
M4.500000,1.000000 
	C3.917334,1.664981 2.834668,2.329961 1.376001,2.997471 
	C0.488351,0.065859 2.693802,1.207369 4.500000,1.000000 
z"/>
<path fill="#EDEEF0" opacity="1.000000" stroke="none" 
	d="
M907.000000,1.500000 
	C906.670959,1.907834 906.408142,1.722018 906.105774,1.221276 
	C906.333313,1.000000 906.666687,1.000000 907.000000,1.500000 
z"/>
<path fill="#455858" opacity="1.000000" stroke="none" 
	d="
M179.004684,476.119507 
	C177.007401,476.123138 175.508713,476.126892 174.010025,476.130005 
	C161.719299,476.155334 161.798645,476.138519 159.222733,463.946838 
	C155.863464,448.047668 152.362808,432.178345 148.862228,416.015594 
	C142.900528,416.015594 137.264191,415.945160 131.630875,416.044922 
	C128.760834,416.095734 125.945053,416.006378 125.903343,412.296295 
	C125.862206,408.636078 128.786285,408.911835 131.326935,408.912598 
	C137.654648,408.914459 143.989212,409.064850 150.307190,408.811249 
	C153.473068,408.684143 154.823059,409.926697 155.407730,412.848450 
	C156.449326,418.053528 157.980499,423.177124 158.736954,428.417084 
	C159.251617,431.982239 160.984818,432.501953 164.079880,432.489746 
	C186.891754,432.399536 209.704254,432.480865 232.516479,432.451111 
	C240.208115,432.441071 241.068008,433.538116 238.903458,440.996307 
	C236.169662,450.415985 233.312073,459.804535 230.834427,469.291779 
	C229.571991,474.125824 227.519226,476.389099 221.960785,476.216583 
	C207.820908,475.777588 193.657349,476.101044 179.004684,476.119507 
M225.976028,461.441498 
	C227.920013,454.297272 229.864014,447.153015 231.835342,439.908295 
	C208.158890,439.908295 185.003281,439.908295 161.199799,439.908295 
	C163.314697,450.068878 165.293015,459.573212 167.301224,469.221252 
	C183.915421,469.221252 199.901062,468.993561 215.873962,469.344696 
	C221.468033,469.467682 225.201935,468.435059 225.976028,461.441498 
z"/>
<path fill="#7CB49E" opacity="1.000000" stroke="none" 
	d="
M437.897003,443.591736 
	C442.500885,442.638611 446.945587,442.066895 452.265442,441.382629 
	C451.213226,444.507080 450.604126,446.520264 449.863281,448.483734 
	C443.228821,466.066956 436.708344,483.695007 429.873383,501.200165 
	C425.111176,513.396851 418.337738,517.519592 405.223633,516.988953 
	C397.976105,516.695679 397.492188,516.090454 398.904449,509.092072 
	C399.194946,507.652405 399.480560,506.211731 399.679291,505.217529 
	C403.364624,505.217529 406.640411,505.477509 409.859985,505.162720 
	C416.290771,504.533844 419.472870,499.027954 417.155579,492.958801 
	C411.222992,477.420746 405.288239,461.883545 399.370575,446.339844 
	C398.909424,445.128662 398.574799,443.869354 397.980133,441.999725 
	C402.203705,441.999725 406.009888,441.710907 409.727203,442.159180 
	C410.997284,442.312378 412.579285,444.113129 413.106384,445.506317 
	C416.519135,454.526459 419.679413,463.642090 422.923065,472.726227 
	C423.523499,474.407745 424.126526,476.088348 425.885345,477.875244 
	C429.836182,466.574554 433.787018,455.273834 437.897003,443.591736 
z"/>
<path fill="#405853" opacity="1.000000" stroke="none" 
	d="
M721.656372,486.570984 
	C715.947083,471.645081 710.391235,457.078369 704.635193,441.986847 
	C708.893982,441.986847 712.563293,441.703094 716.145020,442.138855 
	C717.420105,442.294006 719.045349,443.984222 719.551819,445.333618 
	C723.114807,454.826111 726.420105,464.415161 729.827576,473.966278 
	C730.362915,475.466705 730.998779,476.931244 732.144714,479.810883 
	C736.824341,466.411194 741.049866,454.311951 745.301758,442.137207 
	C749.611816,442.137207 753.745544,442.137207 758.314392,442.137207 
	C757.925354,443.496033 757.667236,444.702362 757.239746,445.845337 
	C750.776489,463.126526 744.294922,480.400879 737.803711,497.671570 
	C737.277649,499.071228 736.674500,500.443604 736.065430,501.810059 
	C729.880310,515.687073 719.917969,520.051453 704.727661,515.116089 
	C705.297974,511.859711 705.883972,508.513306 706.550293,504.708801 
	C708.239624,504.961884 709.646729,505.103821 711.023499,505.391510 
	C715.532837,506.333832 719.603394,505.740143 722.888000,502.187836 
	C726.169800,498.638550 725.243530,494.931946 723.380737,491.130066 
	C722.726196,489.794250 722.326111,488.333740 721.656372,486.570984 
z"/>
<path fill="#3E5752" opacity="1.000000" stroke="none" 
	d="
M699.221741,448.829712 
	C703.603638,456.154022 704.783997,463.978882 702.705566,472.007721 
	C697.189758,472.007721 691.557312,472.007721 685.924866,472.007721 
	C680.443542,472.007721 674.962158,472.007721 669.507385,472.007721 
	C668.840637,477.480865 671.149963,482.000549 675.709839,483.652435 
	C680.943237,485.548370 688.150757,486.199341 693.992798,477.813263 
	C696.970276,479.683716 699.978210,481.573242 702.960266,483.446594 
	C698.433594,493.001556 690.057434,497.109558 677.929382,495.937714 
	C666.709167,494.853546 658.264832,488.266510 656.388062,477.694061 
	C655.338928,471.783936 655.319641,465.370941 656.410095,459.475647 
	C658.068909,450.508057 663.872925,444.287720 672.957642,442.055359 
	C682.658020,439.671692 691.802795,440.457733 699.221741,448.829712 
M681.340088,451.002167 
	C673.596252,451.358429 670.257080,454.570831 669.300110,462.648621 
	C676.489258,462.648621 683.664856,462.648621 690.851562,462.648621 
	C690.417664,454.899506 688.793274,452.787964 681.340088,451.002167 
z"/>
<path fill="#3F5853" opacity="1.000000" stroke="none" 
	d="
M559.393311,443.207764 
	C566.162781,440.596069 572.754211,440.060516 579.289551,442.141632 
	C582.386536,443.127808 585.525574,444.662811 588.031616,446.703186 
	C597.697021,454.572632 599.882385,473.378662 592.755859,484.878174 
	C586.380920,495.164795 571.723022,499.187164 559.541565,493.774109 
	C557.013672,492.650818 554.616760,490.948914 552.574524,489.063995 
	C541.817627,479.135559 541.557373,451.007935 559.393311,443.207764 
M582.955505,463.998108 
	C582.805481,463.180664 582.721191,462.344574 582.494995,461.548798 
	C580.686768,455.189972 576.623962,451.947815 570.711060,452.108093 
	C564.746582,452.269745 560.272522,455.715881 559.488525,462.121552 
	C558.895081,466.970490 559.125854,472.118744 560.100403,476.907776 
	C561.163147,482.129639 565.545349,484.804840 570.838135,484.891937 
	C576.325439,484.982239 580.643250,482.205078 581.985535,476.731537 
	C582.919006,472.924957 582.724976,468.841858 582.955505,463.998108 
z"/>
<path fill="#7BB39D" opacity="1.000000" stroke="none" 
	d="
M346.399719,456.008820 
	C346.400055,451.215179 346.400055,446.919312 346.400055,442.313690 
	C350.963654,442.313690 355.028839,442.313690 359.512604,442.313690 
	C359.688782,444.584686 359.861877,446.815613 360.102631,449.918732 
	C364.679199,443.357178 370.380188,440.590088 377.794403,440.927765 
	C386.980011,441.346191 393.321960,446.214355 393.741577,455.400299 
	C394.332184,468.328979 393.890961,481.304810 393.890961,494.631470 
	C389.487885,494.631470 385.269775,494.631470 380.399353,494.631470 
	C380.399353,488.459564 380.399719,482.344177 380.399231,476.228821 
	C380.398865,471.402405 380.414581,466.575928 380.391235,461.749634 
	C380.371887,457.745483 379.922729,454.050995 375.053894,452.856781 
	C369.855255,451.581635 364.403259,453.089050 362.654297,457.572998 
	C361.068726,461.638062 360.389648,466.224060 360.179749,470.621826 
	C359.801575,478.545227 360.072845,486.499634 360.072845,494.718201 
	C355.432281,494.718201 351.337189,494.718201 346.399353,494.718201 
	C346.399353,481.973389 346.399353,469.239990 346.399719,456.008820 
z"/>
<path fill="#3F5853" opacity="1.000000" stroke="none" 
	d="
M478.029999,495.010010 
	C475.604858,495.010010 473.656708,495.010010 471.335022,495.010010 
	C471.335022,475.238434 471.335022,455.976624 471.335022,436.218781 
	C464.562592,436.218781 458.146240,436.218781 451.424622,436.218781 
	C451.424622,432.337708 451.424622,428.948608 451.424622,425.269531 
	C469.266083,425.269531 487.011658,425.269531 504.955658,425.269531 
	C504.955658,428.759766 504.955658,432.214294 504.955658,436.117676 
	C498.378448,436.117676 491.953278,436.117676 485.152008,436.117676 
	C485.152008,455.808105 485.152008,475.056000 485.152008,495.010010 
	C482.685730,495.010010 480.596375,495.010010 478.029999,495.010010 
z"/>
<path fill="#7BB39D" opacity="1.000000" stroke="none" 
	d="
M290.934845,495.004456 
	C288.169922,495.004486 285.877380,495.004486 283.087860,495.004486 
	C283.087860,475.331635 283.087860,456.113617 283.087860,436.222870 
	C276.072296,436.222870 269.535645,436.222870 262.706787,436.222870 
	C262.706787,432.292328 262.706787,429.036072 262.706787,425.383667 
	C280.643402,425.383667 298.482544,425.383667 316.656677,425.383667 
	C316.656677,428.688965 316.656677,431.939606 316.656677,435.864014 
	C310.374908,435.864014 303.996338,435.864014 297.124268,435.864014 
	C297.124268,455.727814 297.124268,474.939941 297.124268,494.732880 
	C294.900513,494.838501 293.153870,494.921478 290.934845,495.004456 
z"/>
<path fill="#3F5853" opacity="1.000000" stroke="none" 
	d="
M637.014526,420.984314 
	C639.620056,420.984314 641.759155,420.984314 644.291382,420.984314 
	C644.291382,435.498993 644.291748,449.641357 644.291077,463.783722 
	C644.290833,468.449463 644.234741,473.115936 644.298950,477.780762 
	C644.381592,483.787140 645.182617,484.579926 651.470032,484.916504 
	C651.849854,487.942200 652.238281,491.036621 652.620850,494.084045 
	C644.142090,499.068817 633.918152,494.893494 631.791016,485.659882 
	C631.493774,484.369537 631.230652,483.033844 631.228333,481.718658 
	C631.192932,461.737000 631.203735,441.755219 631.203735,420.984344 
	C633.059448,420.984344 634.803772,420.984344 637.014526,420.984314 
z"/>
<path fill="#3E5752" opacity="1.000000" stroke="none" 
	d="
M604.999695,461.000000 
	C604.999695,447.545258 604.999695,434.590515 604.999695,421.313660 
	C609.351562,421.313660 613.414124,421.313660 618.117493,421.313660 
	C618.117493,423.061157 618.117554,424.820465 618.117432,426.579742 
	C618.116516,443.719635 618.081604,460.859650 618.133423,477.999390 
	C618.151062,483.841095 619.055664,484.656738 625.237183,484.683746 
	C625.635620,487.846466 626.043030,491.080566 626.438354,494.218872 
	C616.284607,499.334198 605.892700,493.843567 605.200806,482.958862 
	C604.747620,475.830444 605.040771,468.654602 604.999695,461.000000 
z"/>
<path fill="#3E5752" opacity="1.000000" stroke="none" 
	d="
M516.049561,441.989563 
	C518.677490,441.989624 520.834351,441.989624 523.476624,441.989624 
	C523.636902,444.572327 523.786621,446.983734 524.017334,450.700073 
	C528.933167,442.219635 535.490112,440.339539 543.967224,443.232941 
	C543.226746,447.191223 542.535034,450.889008 541.866882,454.460785 
	C541.344116,454.692993 541.016663,454.984344 540.762451,454.930420 
	C529.846191,452.614716 524.678589,456.364380 524.203796,467.648773 
	C523.828003,476.579468 524.128113,485.538574 524.128113,494.744690 
	C519.495239,494.744690 515.398254,494.744690 511.074799,494.744690 
	C511.074799,477.325684 511.074799,459.907349 511.074799,442.203979 
	C512.653137,442.128845 514.115906,442.059204 516.049561,441.989563 
z"/>
<path fill="#7FB5A0" opacity="1.000000" stroke="none" 
	d="
M335.838379,482.981628 
	C335.838226,487.103149 335.838226,490.728699 335.838226,494.678955 
	C331.141571,494.678955 326.926575,494.678955 322.395508,494.678955 
	C322.395508,477.293488 322.395508,460.066162 322.395508,442.409332 
	C326.591309,442.409332 330.810516,442.409332 335.838501,442.409332 
	C335.838501,455.680328 335.838501,469.083008 335.838379,482.981628 
z"/>
<path fill="#4A5959" opacity="1.000000" stroke="none" 
	d="
M178.916611,481.965179 
	C185.766037,487.257629 186.624268,495.006348 181.312988,500.691376 
	C176.509064,505.833252 168.247131,505.529449 163.166000,500.024078 
	C158.756378,495.246307 159.532623,486.873474 164.945831,482.763123 
	C169.201126,479.531982 173.859573,479.673706 178.916611,481.965179 
M174.177094,486.843964 
	C170.379181,486.138885 167.045776,487.287048 166.804184,491.265167 
	C166.675217,493.388794 168.686935,496.695618 170.598328,497.565125 
	C172.200592,498.294037 175.902298,496.926575 177.178818,495.307892 
	C179.547180,492.304749 178.676285,489.053925 174.177094,486.843964 
z"/>
<path fill="#4A5959" opacity="1.000000" stroke="none" 
	d="
M231.853348,491.257111 
	C231.639633,497.579498 229.080551,501.939026 223.251205,503.769623 
	C218.176910,505.363159 212.849564,503.551971 209.793625,499.529053 
	C205.620758,494.035767 207.159927,485.871338 213.092636,482.029724 
	C218.645172,478.434296 226.686310,480.358826 230.070435,486.209991 
	C230.887512,487.622711 231.253403,489.296387 231.853348,491.257111 
M215.714111,496.863556 
	C220.437408,498.900696 224.015427,498.303528 224.691727,494.757660 
	C225.112885,492.549591 224.453690,489.064758 222.930405,487.863708 
	C221.465942,486.708984 217.752914,486.918121 215.938797,488.023254 
	C212.755814,489.962311 213.173859,493.284332 215.714111,496.863556 
z"/>
<path fill="#7FB5A0" opacity="1.000000" stroke="none" 
	d="
M330.468750,420.462219 
	C336.429047,422.716125 338.363892,426.158234 336.862518,431.293213 
	C335.843079,434.779846 331.673431,437.241516 327.741089,436.678314 
	C323.324249,436.045715 320.697174,432.623688 320.931396,427.808044 
	C321.171265,422.876282 323.907135,420.651184 330.468750,420.462219 
z"/>
<path fill="#FAFBFB" opacity="1.000000" stroke="none" 
	d="
M225.858643,461.834106 
	C225.201935,468.435059 221.468033,469.467682 215.873962,469.344696 
	C199.901062,468.993561 183.915421,469.221252 167.301224,469.221252 
	C165.293015,459.573212 163.314697,450.068878 161.199799,439.908295 
	C185.003281,439.908295 208.158890,439.908295 231.835342,439.908295 
	C229.864014,447.153015 227.920013,454.297272 225.858643,461.834106 
z"/>
<path fill="#FAFBFB" opacity="1.000000" stroke="none" 
	d="
M681.749878,451.012634 
	C688.793274,452.787964 690.417664,454.899506 690.851562,462.648621 
	C683.664856,462.648621 676.489258,462.648621 669.300110,462.648621 
	C670.257080,454.570831 673.596252,451.358429 681.749878,451.012634 
z"/>
<path fill="#FAFBFB" opacity="1.000000" stroke="none" 
	d="
M582.995117,464.440186 
	C582.724976,468.841858 582.919006,472.924957 581.985535,476.731537 
	C580.643250,482.205078 576.325439,484.982239 570.838135,484.891937 
	C565.545349,484.804840 561.163147,482.129639 560.100403,476.907776 
	C559.125854,472.118744 558.895081,466.970490 559.488525,462.121552 
	C560.272522,455.715881 564.746582,452.269745 570.711060,452.108093 
	C576.623962,451.947815 580.686768,455.189972 582.494995,461.548798 
	C582.721191,462.344574 582.805481,463.180664 582.995117,464.440186 
z"/>
<path fill="#EEF4F4" opacity="1.000000" stroke="none" 
	d="
M174.576889,486.971436 
	C178.676285,489.053925 179.547180,492.304749 177.178818,495.307892 
	C175.902298,496.926575 172.200592,498.294037 170.598328,497.565125 
	C168.686935,496.695618 166.675217,493.388794 166.804184,491.265167 
	C167.045776,487.287048 170.379181,486.138885 174.576889,486.971436 
z"/>
<path fill="#EEF4F4" opacity="1.000000" stroke="none" 
	d="
M215.420105,496.571411 
	C213.173859,493.284332 212.755814,489.962311 215.938797,488.023254 
	C217.752914,486.918121 221.465942,486.708984 222.930405,487.863708 
	C224.453690,489.064758 225.112885,492.549591 224.691727,494.757660 
	C224.015427,498.303528 220.437408,498.900696 215.420105,496.571411 
z"/>
</svg>